<svg width="105" height="31" viewBox="0 0 105 31" fill="none" xmlns="http://www.w3.org/2000/svg">
<path d="M87.8884 18.188C87.3859 20.3109 86.1763 21.5998 83.9989 21.5998C81.8026 21.5998 81.2445 20.3299 81.7655 18.188C82.3091 15.9932 83.5982 14.6266 85.9229 14.7447C85.6468 13.8035 85.3776 13.1374 84.6536 12.3408L80.2952 12.1987L76.424 28.1386H79.5135L80.7045 23.2298H80.7417C81.2443 23.9122 82.3795 24.348 83.701 24.348C87.6094 24.348 90.1218 21.7136 90.9779 18.1691C91.7598 14.9327 90.7562 12.4867 87.642 12.0864C87.1118 13.015 86.9704 13.8064 86.8235 14.9044C88.0466 15.3245 88.3025 16.517 87.8883 18.188H87.8884ZM20.1971 8.21854H17.1263L13.2551 24.1394H16.3447L20.1971 8.21854ZM10.9536 18.188C10.451 20.3109 9.2786 21.5998 7.064 21.5998C4.88652 21.5998 4.3281 20.2918 4.83062 18.188C5.35162 16.0653 6.52421 14.7387 8.72048 14.7387C10.9164 14.7387 11.4749 16.0653 10.9536 18.188ZM14.0246 18.188C14.8993 14.6438 13.6708 12.0091 9.74399 12.0091C8.42278 12.0091 7.08263 12.4451 6.245 13.1275H6.20789L7.39896 8.21838H4.32825L0.457031 24.1582H3.52804L3.75135 23.2864H3.78847C4.32825 23.931 5.40782 24.3289 6.76645 24.3289C10.6374 24.3289 13.1686 21.7323 14.0247 18.188H14.0246ZM27.6543 18.188C27.1517 20.2918 25.9607 21.5998 23.7644 21.5998C21.5684 21.5998 21.01 20.3109 21.531 18.188C22.0337 16.0653 23.2434 14.7387 25.4394 14.7387C27.6356 14.7387 28.1753 16.0653 27.6541 18.188H27.6543ZM32.028 12.1987H28.957L28.7337 13.1277H28.6966C28.1753 12.4453 27.0401 12.0093 25.7372 12.0093C21.8102 12.0093 19.3164 14.6439 18.4603 18.1881C17.6042 21.7325 18.8698 24.329 22.7409 24.329C24.0995 24.329 25.3838 23.931 26.2397 23.2865H26.2771L26.0538 24.1584H29.1432L32.0281 12.1987H32.028ZM42.6016 12.1987L38.2466 18.8514L37.2974 20.633H37.2602L37.1112 18.8514L35.6783 12.1987H32.291L34.971 23.8741C34.115 25.1818 33.482 25.5042 32.8309 25.5042C32.2166 25.5042 31.5279 25.2958 30.4859 24.6512L29.7972 27.5133C30.7277 28.0438 31.5092 28.2145 32.4956 28.2145C34.3195 28.2145 36.0317 26.9827 37.2042 25.2577L44.1272 14.9661H49.5961V15.0039L47.9586 16.0653L41.0909 22.0168L40.5699 24.1394H51.6621L52.3322 21.391H45.353L45.3716 21.3532L47.0652 20.1969L53.9887 14.2647L54.4912 12.2177L42.6017 12.1987H42.6016ZM56.3929 16.8613C56.7353 15.4677 58.4885 14.6058 59.8173 14.6058C61.3316 14.6058 62.1463 15.3231 62.1895 16.8613H56.3929ZM65.0658 18.2639C65.9219 14.7765 64.5819 12.0093 60.4503 12.0093C56.5045 12.0093 53.5827 14.6817 52.7266 18.2639C51.9076 21.6566 53.3222 24.329 57.6214 24.329C59.5755 24.329 61.2691 23.7414 62.9627 22.5096L61.567 20.5763C60.4504 21.3534 59.4266 21.7136 58.2542 21.7136C56.7741 21.7136 55.6684 20.9899 55.6671 19.4011H64.7122C64.8613 19.0222 64.9914 18.5672 65.066 18.264L65.0658 18.2639ZM78.5342 12.1987H75.4632L73.7696 19.1737C73.3788 20.7469 72.0575 21.5999 70.3823 21.5999C68.484 21.5999 68.1118 20.7469 68.4655 19.3065L70.1965 12.1989H67.1069L65.3388 19.477C64.6316 22.415 65.7483 24.3292 69.2657 24.3292C70.5314 24.3292 71.8341 23.8933 72.7647 23.1162H72.8019L72.5601 24.1585H75.6308L78.5342 12.1989V12.1987Z" fill="url(#paint0_linear_933_10738)"/>
<path fill-rule="evenodd" clip-rule="evenodd" d="M88.8086 2.5889C87.6231 3.73811 86.6259 5.29615 85.9558 7.31752C85.9558 7.31752 82.5178 3.46607 77.0168 5.56698C71.516 7.66774 71.8597 13.7367 71.8597 13.7367C71.8597 13.7367 73.4418 8.79464 78.7359 8.48479C84.0406 8.17434 86.3048 13.6924 86.3048 13.6924C86.3048 13.6924 87.4577 8.09874 92.259 6.85085C96.6863 5.70027 99.3505 9.24066 98.2302 13.6477C100.134 9.15564 99.3584 4.61391 96.5072 2.63354C95.5064 1.93839 94.1371 1.40918 92.6142 1.40918C91.4063 1.40918 90.1021 1.74195 88.8086 2.58906V2.5889Z" fill="url(#paint1_linear_933_10738)"/>
<path fill-rule="evenodd" clip-rule="evenodd" d="M88.8085 2.58883C91.7329 0.674041 94.7126 1.38695 96.5071 2.63332C99.3582 4.61369 100.134 9.15557 98.23 13.6475C98.1188 14.0853 97.9708 14.5315 97.7828 14.9825C95.9533 19.3743 93.7715 22.1693 93.7715 22.1693C90.5773 27.0864 86.6289 30.7165 86.6289 30.7165C104.32 23.1538 107.217 10.6706 102.573 3.69948C101.033 1.38725 98.178 0.000303644 95.2137 2.17078e-08C92.9674 -0.000151789 90.6583 0.795946 88.8085 2.58883Z" fill="url(#paint2_linear_933_10738)"/>
<path fill-rule="evenodd" clip-rule="evenodd" d="M97.7364 8.74788C97.7364 8.74788 97.736 8.74894 97.7359 8.7494C98.4925 10.0198 98.712 11.753 98.2303 13.6476C100.134 9.15549 99.3585 4.61376 96.5072 2.63338C94.7127 1.38701 91.7332 0.673958 88.8086 2.5889C91.1718 1.18936 98.116 1.53215 97.7364 8.74788Z" fill="url(#paint3_linear_933_10738)"/>
<defs>
<linearGradient id="paint0_linear_933_10738" x1="30.7152" y1="10.4402" x2="42.7399" y2="42.1585" gradientUnits="userSpaceOnUse">
<stop stop-color="#FF9100"/>
<stop offset="0.833617" stop-color="#EC4A23"/>
</linearGradient>
<linearGradient id="paint1_linear_933_10738" x1="80.9948" y1="2.7789" x2="91.8192" y2="16.7677" gradientUnits="userSpaceOnUse">
<stop stop-color="#FF9100"/>
<stop offset="0.833617" stop-color="#EC4A23"/>
</linearGradient>
<linearGradient id="paint2_linear_933_10738" x1="92.6002" y1="3.41295" x2="109.539" y2="9.15299" gradientUnits="userSpaceOnUse">
<stop stop-color="#FF9100"/>
<stop offset="0.833617" stop-color="#EC4A23"/>
</linearGradient>
<linearGradient id="paint3_linear_933_10738" x1="92.2969" y1="2.76889" x2="101.144" y2="7.16476" gradientUnits="userSpaceOnUse">
<stop stop-color="#FF9100"/>
<stop offset="0.833617" stop-color="#EC4A23"/>
</linearGradient>
</defs>
</svg>
